<svg width="25" height="24" viewBox="0 0 25 24" fill="none" xmlns="http://www.w3.org/2000/svg">
<g clip-path="url(#clip0_1_267)">
<path fill-rule="evenodd" clip-rule="evenodd" d="M7.0556 8.11181C5.62072 8.94024 5.12909 10.775 5.95752 12.2099C6.38817 12.9558 7.0899 13.4466 7.86778 13.63C8.0673 13.677 8.21789 13.8411 8.24772 14.0439C8.27755 14.2467 8.18056 14.4472 8.00304 14.5497L6.80562 15.241C5.37074 16.0694 4.87911 17.9042 5.70754 19.3391C6.53597 20.7739 8.37074 21.2656 9.80562 20.4371L17.5998 15.9371C19.0347 15.1087 19.5263 13.2739 18.6979 11.8391C18.2673 11.0931 17.5655 10.6024 16.7877 10.419C16.5881 10.3719 16.4375 10.2079 16.4077 10.0051C16.3779 9.80225 16.4749 9.60179 16.6524 9.49929L17.8498 8.80796C19.2847 7.97953 19.7763 6.14476 18.9479 4.70988C18.1195 3.27501 16.2847 2.78338 14.8498 3.61181L7.0556 8.11181ZM5.0915 12.7099C3.98693 10.7967 4.64243 8.35035 6.5556 7.24578L14.3498 2.74578C16.263 1.64121 18.7094 2.29671 19.8139 4.20988C20.9185 6.12305 20.263 8.56942 18.3498 9.67399L18.0509 9.84657C18.6606 10.1865 19.1895 10.6906 19.5639 11.3391C20.6685 13.2522 20.013 15.6986 18.0998 16.8032L10.3056 21.3032C8.39245 22.4077 5.94608 21.7522 4.84151 19.8391C3.73694 17.9259 4.39245 15.4795 6.30562 14.375L6.60454 14.2024C5.99483 13.8624 5.46589 13.3584 5.0915 12.7099Z" fill="white"/>
<path d="M15.5 12L11 14.5981L11 9.40192L15.5 12Z" fill="white"/>
</g>
<defs>
<clipPath id="clip0_1_267">
<rect width="24" height="24" fill="white" transform="translate(0.5)"/>
</clipPath>
</defs>
</svg>
