<svg width="24" height="24" viewBox="0 0 24 24" fill="none" xmlns="http://www.w3.org/2000/svg">
<path fill-rule="evenodd" clip-rule="evenodd" d="M12 3C7.02944 3 3 7.02944 3 12C3 16.9706 7.02944 21 12 21C16.9706 21 21 16.9706 21 12C21 7.02944 16.9706 3 12 3ZM2 12C2 6.47715 6.47715 2 12 2C17.5228 2 22 6.47715 22 12C22 17.5228 17.5228 22 12 22C6.47715 22 2 17.5228 2 12Z" fill="white"/>
<path fill-rule="evenodd" clip-rule="evenodd" d="M17.5578 5.49766L9.76355 9.99766L6.58111 18.7633L14.4956 14.1938L17.5578 5.49766ZM12.7461 13.3864C13.4978 13.0382 13.825 12.1466 13.4768 11.3949C13.1286 10.6432 12.237 10.316 11.4853 10.6642C10.7336 11.0123 10.4064 11.904 10.7546 12.6557C11.1028 13.4074 11.9944 13.7345 12.7461 13.3864Z" fill="white"/>
</svg>
