<svg width="24" height="24" viewBox="0 0 24 24" fill="none" xmlns="http://www.w3.org/2000/svg">
<path fill-rule="evenodd" clip-rule="evenodd" d="M6.05563 7.24569C4.14246 8.35026 3.48696 10.7966 4.59153 12.7098C4.96592 13.3583 5.49486 13.8624 6.10457 14.2023L5.80565 14.3749C3.89248 15.4794 3.23697 17.9258 4.34154 19.839C5.44611 21.7521 7.89247 22.4076 9.80564 21.3031L17.5999 16.8031C19.513 15.6985 20.1685 13.2521 19.064 11.339C18.6896 10.6905 18.1606 10.1864 17.5509 9.84648L17.8499 9.67389C19.763 8.56933 20.4185 6.12296 19.314 4.20979C18.2094 2.29662 15.763 1.64112 13.8499 2.74569L6.05563 7.24569ZM10.5 14.5981L15 12L10.5 9.40192L10.5 14.5981Z" fill="#FF0000"/>
<path fill-rule="evenodd" clip-rule="evenodd" d="M10.5 14.5982L15 12.0001L10.5 9.40203L10.5 14.5982Z" fill="white"/>
</svg>
